<svg width="55" height="55" viewBox="0 0 55 55" fill="none" xmlns="http://www.w3.org/2000/svg">
<g filter="url(#filter0_f_1_35)">
<path d="M17.7688 24.0062L24.3813 17.3937C27.6875 17.3219 30.7063 18.6875 33.5094 21.4906C36.3125 24.2937 37.6781 27.3125 37.6063 30.6187L30.9938 37.2312C27.3281 40.8969 21.4344 40.8969 17.7688 37.2312C14.1031 33.5656 14.1031 27.6719 17.7688 24.0062Z" fill="#FF7A01"/>
</g>
<path d="M17.7688 24.0062L24.3813 17.3937C27.6875 17.3219 30.7063 18.6875 33.5094 21.4906C36.3125 24.2937 37.6781 27.3125 37.6063 30.6187L30.9938 37.2312C27.3281 40.8969 21.4344 40.8969 17.7688 37.2312C14.1031 33.5656 14.1031 27.6719 17.7688 24.0062Z" fill="#FF7A01"/>
<path d="M18.775 25.0125C15.6844 28.1031 15.6844 33.1344 18.775 36.225C21.8656 39.3156 26.8969 39.3156 29.9875 36.225L45.225 20.9875C48.3156 17.8969 48.3156 12.8656 45.225 9.775C42.1344 6.68438 37.1031 6.68438 34.0125 9.775L18.775 25.0125ZM17.7687 24.0063L33.0063 8.76875C36.6719 5.10312 42.5656 5.10312 46.2312 8.76875C49.8969 12.4344 49.8969 18.3281 46.2312 21.9938L30.9938 37.2312C27.3281 40.8969 21.4344 40.8969 17.7687 37.2312C14.1031 33.5656 14.1031 27.6719 17.7687 24.0063Z" fill="#502E55"/>
<path d="M35.5219 19.4781C34.9469 20.0531 34.0844 20.0531 33.5094 19.4781C32.9344 18.9031 32.9344 18.0406 33.5094 17.4656C34.0844 16.8906 34.9469 16.8906 35.5219 17.4656C36.0969 17.9687 36.0969 18.9031 35.5219 19.4781ZM41.6312 22.4969C41.0562 23.0719 40.1937 23.0719 39.6187 22.4969C39.0437 21.9219 39.0437 21.0594 39.6187 20.4844C40.1937 19.9094 41.0562 19.9094 41.6312 20.4844C42.2062 21.0594 42.2062 21.9219 41.6312 22.4969ZM42.4219 14.5906C41.9906 15.0219 41.3437 15.0219 40.9125 14.5906C40.4812 14.1594 40.4812 13.5125 40.9125 13.0813C41.3437 12.65 41.9906 12.65 42.4219 13.0813C42.8531 13.5125 42.8531 14.1594 42.4219 14.5906ZM45.225 13.8719C44.9375 14.1594 44.5062 14.1594 44.2187 13.8719C43.9312 13.5844 43.9312 13.1531 44.2187 12.8656C44.5062 12.5781 44.9375 12.5781 45.225 12.8656C45.5125 13.0812 45.5125 13.5844 45.225 13.8719ZM40.625 11.2844C40.3375 11.5719 39.9062 11.5719 39.6187 11.2844C39.3312 10.9969 39.3312 10.5656 39.6187 10.2781C39.9062 9.99063 40.3375 9.99063 40.625 10.2781C40.9125 10.5656 40.9125 10.9969 40.625 11.2844ZM39.6187 18.4C39.3312 18.6875 38.9 18.6875 38.6125 18.4C38.325 18.1125 38.325 17.6813 38.6125 17.3938C38.9 17.1063 39.3312 17.1063 39.6187 17.3938C39.9062 17.6813 39.9062 18.1125 39.6187 18.4ZM34.0125 13.8719C33.725 14.1594 33.2937 14.1594 33.0062 13.8719C32.7187 13.5844 32.7187 13.1531 33.0062 12.8656C33.2937 12.5781 33.725 12.5781 34.0125 12.8656C34.3 13.0812 34.3 13.5844 34.0125 13.8719ZM38.8281 13.0813C38.1094 13.8 36.9594 13.8 36.3125 13.0813C35.6656 12.3625 35.5937 11.2125 36.3125 10.5656C37.0312 9.91875 38.1812 9.84688 38.8281 10.5656C39.475 11.2844 39.5469 12.3625 38.8281 13.0813Z" fill="#FF7A01"/>
<defs>
<filter id="filter0_f_1_35" x="0.0195312" y="2.39105" width="52.5894" height="52.5894" filterUnits="userSpaceOnUse" color-interpolation-filters="sRGB">
<feFlood flood-opacity="0" result="BackgroundImageFix"/>
<feBlend mode="normal" in="SourceGraphic" in2="BackgroundImageFix" result="shape"/>
<feGaussianBlur stdDeviation="7.5" result="effect1_foregroundBlur_1_35"/>
</filter>
</defs>
</svg>
